<svg width="32" height="32" viewBox="0 0 32 32" fill="none" xmlns="http://www.w3.org/2000/svg">
<path fill-rule="evenodd" clip-rule="evenodd" d="M16.2406 6.91849C15.0682 6.91849 14.1178 7.86466 14.1178 9.03181V21.9682C14.1178 25.2995 11.4052 28 8.05891 28C4.71267 28 2 25.2995 2 21.9682V16.5201H5.9361V21.9682C5.9361 23.1353 6.88651 24.0815 8.05891 24.0815C9.23131 24.0815 10.1817 23.1353 10.1817 21.9682V9.03181C10.1817 5.70054 12.8944 3 16.2406 3C19.5869 3 22.2995 5.70053 22.2995 9.03181V13.1198H18.3634V9.03181C18.3634 7.86466 17.413 6.91849 16.2406 6.91849ZM18.3635 22.2078V16.4583H22.2996V22.2078C22.2996 23.2426 23.1422 24.0815 24.1817 24.0815C25.2212 24.0815 26.0639 23.2426 26.0639 22.2078V16.4583H30V22.2078C30 25.4067 27.3951 28 24.1817 28C20.9684 28 18.3635 25.4067 18.3635 22.2078Z" fill="white"/>
</svg>
